<mxfile host="app.diagrams.net" modified="2022-06-12T12:07:54.164Z" agent="5.0 (Windows NT 10.0; Win64; x64) AppleWebKit/537.36 (KHTML, like Gecko) Chrome/102.0.0.0 Safari/537.36" etag="NzT9IYHOPwPveFN7BEti" version="17.4.0" type="github">
  <diagram id="R2lEEEUBdFMjLlhIrx00" name="Page-1">
    <mxGraphModel dx="1422" dy="2905" grid="1" gridSize="10" guides="1" tooltips="1" connect="1" arrows="1" fold="1" page="1" pageScale="1" pageWidth="850" pageHeight="1100" math="0" shadow="0" extFonts="Permanent Marker^https://fonts.googleapis.com/css?family=Permanent+Marker">
      <root>
        <mxCell id="0" />
        <mxCell id="1" parent="0" />
        <mxCell id="lMvQeM_lRYCUasm3D4Tz-112" value="커피 메뉴" style="shape=table;startSize=30;container=1;collapsible=1;childLayout=tableLayout;fixedRows=1;rowLines=0;fontStyle=1;align=center;resizeLast=1;" parent="1" vertex="1">
          <mxGeometry x="20" y="-2180" width="220" height="150" as="geometry" />
        </mxCell>
        <mxCell id="lMvQeM_lRYCUasm3D4Tz-113" value="" style="shape=tableRow;horizontal=0;startSize=0;swimlaneHead=0;swimlaneBody=0;fillColor=none;collapsible=0;dropTarget=0;points=[[0,0.5],[1,0.5]];portConstraint=eastwest;top=0;left=0;right=0;bottom=1;" parent="lMvQeM_lRYCUasm3D4Tz-112" vertex="1">
          <mxGeometry y="30" width="220" height="30" as="geometry" />
        </mxCell>
        <mxCell id="lMvQeM_lRYCUasm3D4Tz-114" value="PK" style="shape=partialRectangle;connectable=0;fillColor=none;top=0;left=0;bottom=0;right=0;fontStyle=1;overflow=hidden;" parent="lMvQeM_lRYCUasm3D4Tz-113" vertex="1">
          <mxGeometry width="30" height="30" as="geometry">
            <mxRectangle width="30" height="30" as="alternateBounds" />
          </mxGeometry>
        </mxCell>
        <mxCell id="lMvQeM_lRYCUasm3D4Tz-115" value="메뉴 번호 int not null" style="shape=partialRectangle;connectable=0;fillColor=none;top=0;left=0;bottom=0;right=0;align=left;spacingLeft=6;fontStyle=5;overflow=hidden;" parent="lMvQeM_lRYCUasm3D4Tz-113" vertex="1">
          <mxGeometry x="30" width="190" height="30" as="geometry">
            <mxRectangle width="190" height="30" as="alternateBounds" />
          </mxGeometry>
        </mxCell>
        <mxCell id="lMvQeM_lRYCUasm3D4Tz-116" value="" style="shape=tableRow;horizontal=0;startSize=0;swimlaneHead=0;swimlaneBody=0;fillColor=none;collapsible=0;dropTarget=0;points=[[0,0.5],[1,0.5]];portConstraint=eastwest;top=0;left=0;right=0;bottom=0;" parent="lMvQeM_lRYCUasm3D4Tz-112" vertex="1">
          <mxGeometry y="60" width="220" height="30" as="geometry" />
        </mxCell>
        <mxCell id="lMvQeM_lRYCUasm3D4Tz-117" value="" style="shape=partialRectangle;connectable=0;fillColor=none;top=0;left=0;bottom=0;right=0;editable=1;overflow=hidden;" parent="lMvQeM_lRYCUasm3D4Tz-116" vertex="1">
          <mxGeometry width="30" height="30" as="geometry">
            <mxRectangle width="30" height="30" as="alternateBounds" />
          </mxGeometry>
        </mxCell>
        <mxCell id="lMvQeM_lRYCUasm3D4Tz-118" value="카테고리 varchar(20)" style="shape=partialRectangle;connectable=0;fillColor=none;top=0;left=0;bottom=0;right=0;align=left;spacingLeft=6;overflow=hidden;" parent="lMvQeM_lRYCUasm3D4Tz-116" vertex="1">
          <mxGeometry x="30" width="190" height="30" as="geometry">
            <mxRectangle width="190" height="30" as="alternateBounds" />
          </mxGeometry>
        </mxCell>
        <mxCell id="fNFz6IM5qzsCqOCAjRxp-10" style="shape=tableRow;horizontal=0;startSize=0;swimlaneHead=0;swimlaneBody=0;fillColor=none;collapsible=0;dropTarget=0;points=[[0,0.5],[1,0.5]];portConstraint=eastwest;top=0;left=0;right=0;bottom=0;" vertex="1" parent="lMvQeM_lRYCUasm3D4Tz-112">
          <mxGeometry y="90" width="220" height="30" as="geometry" />
        </mxCell>
        <mxCell id="fNFz6IM5qzsCqOCAjRxp-11" style="shape=partialRectangle;connectable=0;fillColor=none;top=0;left=0;bottom=0;right=0;editable=1;overflow=hidden;" vertex="1" parent="fNFz6IM5qzsCqOCAjRxp-10">
          <mxGeometry width="30" height="30" as="geometry">
            <mxRectangle width="30" height="30" as="alternateBounds" />
          </mxGeometry>
        </mxCell>
        <mxCell id="fNFz6IM5qzsCqOCAjRxp-12" value="메뉴 이름 varchar(20) not null" style="shape=partialRectangle;connectable=0;fillColor=none;top=0;left=0;bottom=0;right=0;align=left;spacingLeft=6;overflow=hidden;" vertex="1" parent="fNFz6IM5qzsCqOCAjRxp-10">
          <mxGeometry x="30" width="190" height="30" as="geometry">
            <mxRectangle width="190" height="30" as="alternateBounds" />
          </mxGeometry>
        </mxCell>
        <mxCell id="lMvQeM_lRYCUasm3D4Tz-133" style="shape=tableRow;horizontal=0;startSize=0;swimlaneHead=0;swimlaneBody=0;fillColor=none;collapsible=0;dropTarget=0;points=[[0,0.5],[1,0.5]];portConstraint=eastwest;top=0;left=0;right=0;bottom=0;" parent="lMvQeM_lRYCUasm3D4Tz-112" vertex="1">
          <mxGeometry y="120" width="220" height="30" as="geometry" />
        </mxCell>
        <mxCell id="lMvQeM_lRYCUasm3D4Tz-134" style="shape=partialRectangle;connectable=0;fillColor=none;top=0;left=0;bottom=0;right=0;editable=1;overflow=hidden;" parent="lMvQeM_lRYCUasm3D4Tz-133" vertex="1">
          <mxGeometry width="30" height="30" as="geometry">
            <mxRectangle width="30" height="30" as="alternateBounds" />
          </mxGeometry>
        </mxCell>
        <mxCell id="lMvQeM_lRYCUasm3D4Tz-135" value="가격 int not null" style="shape=partialRectangle;connectable=0;fillColor=none;top=0;left=0;bottom=0;right=0;align=left;spacingLeft=6;overflow=hidden;" parent="lMvQeM_lRYCUasm3D4Tz-133" vertex="1">
          <mxGeometry x="30" width="190" height="30" as="geometry">
            <mxRectangle width="190" height="30" as="alternateBounds" />
          </mxGeometry>
        </mxCell>
        <mxCell id="lMvQeM_lRYCUasm3D4Tz-136" value="커피 옵션" style="shape=table;startSize=30;container=1;collapsible=1;childLayout=tableLayout;fixedRows=1;rowLines=0;fontStyle=1;align=center;resizeLast=1;" parent="1" vertex="1">
          <mxGeometry x="405" y="-2180" width="215" height="150" as="geometry" />
        </mxCell>
        <mxCell id="lMvQeM_lRYCUasm3D4Tz-137" value="" style="shape=tableRow;horizontal=0;startSize=0;swimlaneHead=0;swimlaneBody=0;fillColor=none;collapsible=0;dropTarget=0;points=[[0,0.5],[1,0.5]];portConstraint=eastwest;top=0;left=0;right=0;bottom=1;" parent="lMvQeM_lRYCUasm3D4Tz-136" vertex="1">
          <mxGeometry y="30" width="215" height="30" as="geometry" />
        </mxCell>
        <mxCell id="lMvQeM_lRYCUasm3D4Tz-138" value="PK" style="shape=partialRectangle;connectable=0;fillColor=none;top=0;left=0;bottom=0;right=0;fontStyle=1;overflow=hidden;" parent="lMvQeM_lRYCUasm3D4Tz-137" vertex="1">
          <mxGeometry width="30" height="30" as="geometry">
            <mxRectangle width="30" height="30" as="alternateBounds" />
          </mxGeometry>
        </mxCell>
        <mxCell id="lMvQeM_lRYCUasm3D4Tz-139" value="옵션 번호 int not null" style="shape=partialRectangle;connectable=0;fillColor=none;top=0;left=0;bottom=0;right=0;align=left;spacingLeft=6;fontStyle=5;overflow=hidden;" parent="lMvQeM_lRYCUasm3D4Tz-137" vertex="1">
          <mxGeometry x="30" width="185" height="30" as="geometry">
            <mxRectangle width="185" height="30" as="alternateBounds" />
          </mxGeometry>
        </mxCell>
        <mxCell id="lMvQeM_lRYCUasm3D4Tz-143" value="" style="shape=tableRow;horizontal=0;startSize=0;swimlaneHead=0;swimlaneBody=0;fillColor=none;collapsible=0;dropTarget=0;points=[[0,0.5],[1,0.5]];portConstraint=eastwest;top=0;left=0;right=0;bottom=0;" parent="lMvQeM_lRYCUasm3D4Tz-136" vertex="1">
          <mxGeometry y="60" width="215" height="30" as="geometry" />
        </mxCell>
        <mxCell id="lMvQeM_lRYCUasm3D4Tz-144" value="" style="shape=partialRectangle;connectable=0;fillColor=none;top=0;left=0;bottom=0;right=0;editable=1;overflow=hidden;" parent="lMvQeM_lRYCUasm3D4Tz-143" vertex="1">
          <mxGeometry width="30" height="30" as="geometry">
            <mxRectangle width="30" height="30" as="alternateBounds" />
          </mxGeometry>
        </mxCell>
        <mxCell id="lMvQeM_lRYCUasm3D4Tz-145" value="옵션 이름 varchar(10) not nul" style="shape=partialRectangle;connectable=0;fillColor=none;top=0;left=0;bottom=0;right=0;align=left;spacingLeft=6;overflow=hidden;" parent="lMvQeM_lRYCUasm3D4Tz-143" vertex="1">
          <mxGeometry x="30" width="185" height="30" as="geometry">
            <mxRectangle width="185" height="30" as="alternateBounds" />
          </mxGeometry>
        </mxCell>
        <mxCell id="lMvQeM_lRYCUasm3D4Tz-146" style="shape=tableRow;horizontal=0;startSize=0;swimlaneHead=0;swimlaneBody=0;fillColor=none;collapsible=0;dropTarget=0;points=[[0,0.5],[1,0.5]];portConstraint=eastwest;top=0;left=0;right=0;bottom=0;" parent="lMvQeM_lRYCUasm3D4Tz-136" vertex="1">
          <mxGeometry y="90" width="215" height="30" as="geometry" />
        </mxCell>
        <mxCell id="lMvQeM_lRYCUasm3D4Tz-147" style="shape=partialRectangle;connectable=0;fillColor=none;top=0;left=0;bottom=0;right=0;editable=1;overflow=hidden;" parent="lMvQeM_lRYCUasm3D4Tz-146" vertex="1">
          <mxGeometry width="30" height="30" as="geometry">
            <mxRectangle width="30" height="30" as="alternateBounds" />
          </mxGeometry>
        </mxCell>
        <mxCell id="lMvQeM_lRYCUasm3D4Tz-148" value="가격 int not null" style="shape=partialRectangle;connectable=0;fillColor=none;top=0;left=0;bottom=0;right=0;align=left;spacingLeft=6;overflow=hidden;" parent="lMvQeM_lRYCUasm3D4Tz-146" vertex="1">
          <mxGeometry x="30" width="185" height="30" as="geometry">
            <mxRectangle width="185" height="30" as="alternateBounds" />
          </mxGeometry>
        </mxCell>
        <mxCell id="lMvQeM_lRYCUasm3D4Tz-149" style="shape=tableRow;horizontal=0;startSize=0;swimlaneHead=0;swimlaneBody=0;fillColor=none;collapsible=0;dropTarget=0;points=[[0,0.5],[1,0.5]];portConstraint=eastwest;top=0;left=0;right=0;bottom=0;" parent="lMvQeM_lRYCUasm3D4Tz-136" vertex="1">
          <mxGeometry y="120" width="215" height="30" as="geometry" />
        </mxCell>
        <mxCell id="lMvQeM_lRYCUasm3D4Tz-150" style="shape=partialRectangle;connectable=0;fillColor=none;top=0;left=0;bottom=0;right=0;editable=1;overflow=hidden;" parent="lMvQeM_lRYCUasm3D4Tz-149" vertex="1">
          <mxGeometry width="30" height="30" as="geometry">
            <mxRectangle width="30" height="30" as="alternateBounds" />
          </mxGeometry>
        </mxCell>
        <mxCell id="lMvQeM_lRYCUasm3D4Tz-151" value="필수 여부 char(1) not null" style="shape=partialRectangle;connectable=0;fillColor=none;top=0;left=0;bottom=0;right=0;align=left;spacingLeft=6;overflow=hidden;" parent="lMvQeM_lRYCUasm3D4Tz-149" vertex="1">
          <mxGeometry x="30" width="185" height="30" as="geometry">
            <mxRectangle width="185" height="30" as="alternateBounds" />
          </mxGeometry>
        </mxCell>
        <mxCell id="MH31CtjYxQi1WA21hLkp-4" value="장바구니" style="shape=table;startSize=30;container=1;collapsible=1;childLayout=tableLayout;fixedRows=1;rowLines=0;fontStyle=1;align=center;resizeLast=1;" parent="1" vertex="1">
          <mxGeometry x="5" y="-1908" width="240" height="146" as="geometry" />
        </mxCell>
        <mxCell id="MH31CtjYxQi1WA21hLkp-5" value="" style="shape=tableRow;horizontal=0;startSize=0;swimlaneHead=0;swimlaneBody=0;fillColor=none;collapsible=0;dropTarget=0;points=[[0,0.5],[1,0.5]];portConstraint=eastwest;top=0;left=0;right=0;bottom=1;" parent="MH31CtjYxQi1WA21hLkp-4" vertex="1">
          <mxGeometry y="30" width="240" height="30" as="geometry" />
        </mxCell>
        <mxCell id="MH31CtjYxQi1WA21hLkp-6" value="PK, FK" style="shape=partialRectangle;connectable=0;fillColor=none;top=0;left=0;bottom=0;right=0;fontStyle=1;overflow=hidden;" parent="MH31CtjYxQi1WA21hLkp-5" vertex="1">
          <mxGeometry width="54" height="30" as="geometry">
            <mxRectangle width="54" height="30" as="alternateBounds" />
          </mxGeometry>
        </mxCell>
        <mxCell id="MH31CtjYxQi1WA21hLkp-7" value="메뉴 번호 int not null" style="shape=partialRectangle;connectable=0;fillColor=none;top=0;left=0;bottom=0;right=0;align=left;spacingLeft=6;fontStyle=5;overflow=hidden;" parent="MH31CtjYxQi1WA21hLkp-5" vertex="1">
          <mxGeometry x="54" width="186" height="30" as="geometry">
            <mxRectangle width="186" height="30" as="alternateBounds" />
          </mxGeometry>
        </mxCell>
        <mxCell id="MH31CtjYxQi1WA21hLkp-17" style="shape=tableRow;horizontal=0;startSize=0;swimlaneHead=0;swimlaneBody=0;fillColor=none;collapsible=0;dropTarget=0;points=[[0,0.5],[1,0.5]];portConstraint=eastwest;top=0;left=0;right=0;bottom=1;" parent="MH31CtjYxQi1WA21hLkp-4" vertex="1">
          <mxGeometry y="60" width="240" height="28" as="geometry" />
        </mxCell>
        <mxCell id="MH31CtjYxQi1WA21hLkp-18" value="PK" style="shape=partialRectangle;connectable=0;fillColor=none;top=0;left=0;bottom=0;right=0;fontStyle=1;overflow=hidden;" parent="MH31CtjYxQi1WA21hLkp-17" vertex="1">
          <mxGeometry width="54" height="28" as="geometry">
            <mxRectangle width="54" height="28" as="alternateBounds" />
          </mxGeometry>
        </mxCell>
        <mxCell id="MH31CtjYxQi1WA21hLkp-19" value="선택된 옵션 정보 varchar(30)" style="shape=partialRectangle;connectable=0;fillColor=none;top=0;left=0;bottom=0;right=0;align=left;spacingLeft=6;fontStyle=5;overflow=hidden;" parent="MH31CtjYxQi1WA21hLkp-17" vertex="1">
          <mxGeometry x="54" width="186" height="28" as="geometry">
            <mxRectangle width="186" height="28" as="alternateBounds" />
          </mxGeometry>
        </mxCell>
        <mxCell id="MH31CtjYxQi1WA21hLkp-11" value="" style="shape=tableRow;horizontal=0;startSize=0;swimlaneHead=0;swimlaneBody=0;fillColor=none;collapsible=0;dropTarget=0;points=[[0,0.5],[1,0.5]];portConstraint=eastwest;top=0;left=0;right=0;bottom=0;" parent="MH31CtjYxQi1WA21hLkp-4" vertex="1">
          <mxGeometry y="88" width="240" height="28" as="geometry" />
        </mxCell>
        <mxCell id="MH31CtjYxQi1WA21hLkp-12" value="" style="shape=partialRectangle;connectable=0;fillColor=none;top=0;left=0;bottom=0;right=0;editable=1;overflow=hidden;" parent="MH31CtjYxQi1WA21hLkp-11" vertex="1">
          <mxGeometry width="54" height="28" as="geometry">
            <mxRectangle width="54" height="28" as="alternateBounds" />
          </mxGeometry>
        </mxCell>
        <mxCell id="MH31CtjYxQi1WA21hLkp-13" value="수량 int not null" style="shape=partialRectangle;connectable=0;fillColor=none;top=0;left=0;bottom=0;right=0;align=left;spacingLeft=6;overflow=hidden;" parent="MH31CtjYxQi1WA21hLkp-11" vertex="1">
          <mxGeometry x="54" width="186" height="28" as="geometry">
            <mxRectangle width="186" height="28" as="alternateBounds" />
          </mxGeometry>
        </mxCell>
        <mxCell id="MH31CtjYxQi1WA21hLkp-14" style="shape=tableRow;horizontal=0;startSize=0;swimlaneHead=0;swimlaneBody=0;fillColor=none;collapsible=0;dropTarget=0;points=[[0,0.5],[1,0.5]];portConstraint=eastwest;top=0;left=0;right=0;bottom=0;" parent="MH31CtjYxQi1WA21hLkp-4" vertex="1">
          <mxGeometry y="116" width="240" height="30" as="geometry" />
        </mxCell>
        <mxCell id="MH31CtjYxQi1WA21hLkp-15" style="shape=partialRectangle;connectable=0;fillColor=none;top=0;left=0;bottom=0;right=0;editable=1;overflow=hidden;" parent="MH31CtjYxQi1WA21hLkp-14" vertex="1">
          <mxGeometry width="54" height="30" as="geometry">
            <mxRectangle width="54" height="30" as="alternateBounds" />
          </mxGeometry>
        </mxCell>
        <mxCell id="MH31CtjYxQi1WA21hLkp-16" value="가격 int not null" style="shape=partialRectangle;connectable=0;fillColor=none;top=0;left=0;bottom=0;right=0;align=left;spacingLeft=6;overflow=hidden;" parent="MH31CtjYxQi1WA21hLkp-14" vertex="1">
          <mxGeometry x="54" width="186" height="30" as="geometry">
            <mxRectangle width="186" height="30" as="alternateBounds" />
          </mxGeometry>
        </mxCell>
        <mxCell id="MH31CtjYxQi1WA21hLkp-20" value="담기" style="rounded=0;whiteSpace=wrap;html=1;" parent="1" vertex="1">
          <mxGeometry x="90" y="-1980" width="70" height="30" as="geometry" />
        </mxCell>
        <mxCell id="MH31CtjYxQi1WA21hLkp-22" value="부여" style="rounded=0;whiteSpace=wrap;html=1;" parent="1" vertex="1">
          <mxGeometry x="280" y="-2120" width="70" height="30" as="geometry" />
        </mxCell>
        <mxCell id="MH31CtjYxQi1WA21hLkp-23" value="" style="endArrow=none;html=1;rounded=0;exitX=1;exitY=0.5;exitDx=0;exitDy=0;entryX=0;entryY=0.5;entryDx=0;entryDy=0;" parent="1" target="MH31CtjYxQi1WA21hLkp-22" edge="1">
          <mxGeometry width="50" height="50" relative="1" as="geometry">
            <mxPoint x="240" y="-2105" as="sourcePoint" />
            <mxPoint x="430" y="-2050" as="targetPoint" />
          </mxGeometry>
        </mxCell>
        <mxCell id="MH31CtjYxQi1WA21hLkp-25" value="" style="endArrow=none;html=1;rounded=0;exitX=1;exitY=0.5;exitDx=0;exitDy=0;entryX=0;entryY=0.5;entryDx=0;entryDy=0;" parent="1" source="MH31CtjYxQi1WA21hLkp-22" target="lMvQeM_lRYCUasm3D4Tz-143" edge="1">
          <mxGeometry width="50" height="50" relative="1" as="geometry">
            <mxPoint x="380" y="-2000" as="sourcePoint" />
            <mxPoint x="430" y="-2050" as="targetPoint" />
          </mxGeometry>
        </mxCell>
        <mxCell id="MH31CtjYxQi1WA21hLkp-26" value="" style="endArrow=none;html=1;rounded=0;exitX=0.5;exitY=0;exitDx=0;exitDy=0;entryX=0.478;entryY=0.967;entryDx=0;entryDy=0;entryPerimeter=0;" parent="1" source="MH31CtjYxQi1WA21hLkp-20" target="lMvQeM_lRYCUasm3D4Tz-133" edge="1">
          <mxGeometry width="50" height="50" relative="1" as="geometry">
            <mxPoint x="380" y="-2000" as="sourcePoint" />
            <mxPoint x="430" y="-2050" as="targetPoint" />
          </mxGeometry>
        </mxCell>
        <mxCell id="MH31CtjYxQi1WA21hLkp-27" value="" style="endArrow=none;html=1;rounded=0;exitX=0.5;exitY=0;exitDx=0;exitDy=0;entryX=0.5;entryY=1;entryDx=0;entryDy=0;" parent="1" source="MH31CtjYxQi1WA21hLkp-4" target="MH31CtjYxQi1WA21hLkp-20" edge="1">
          <mxGeometry width="50" height="50" relative="1" as="geometry">
            <mxPoint x="380" y="-1770" as="sourcePoint" />
            <mxPoint x="430" y="-1820" as="targetPoint" />
          </mxGeometry>
        </mxCell>
        <mxCell id="MH31CtjYxQi1WA21hLkp-54" value="소유" style="rounded=0;whiteSpace=wrap;html=1;" parent="1" vertex="1">
          <mxGeometry x="90" y="-1700" width="70" height="30" as="geometry" />
        </mxCell>
        <mxCell id="MH31CtjYxQi1WA21hLkp-61" value="비회원" style="rounded=1;whiteSpace=wrap;html=1;" parent="1" vertex="1">
          <mxGeometry x="30" y="-1600" width="80" height="30" as="geometry" />
        </mxCell>
        <mxCell id="MH31CtjYxQi1WA21hLkp-62" value="" style="endArrow=none;html=1;rounded=0;exitX=0.5;exitY=0;exitDx=0;exitDy=0;entryX=0.5;entryY=1;entryDx=0;entryDy=0;entryPerimeter=0;" parent="1" source="MH31CtjYxQi1WA21hLkp-54" target="MH31CtjYxQi1WA21hLkp-14" edge="1">
          <mxGeometry width="50" height="50" relative="1" as="geometry">
            <mxPoint x="380" y="-1760" as="sourcePoint" />
            <mxPoint x="430" y="-1810" as="targetPoint" />
          </mxGeometry>
        </mxCell>
        <mxCell id="MH31CtjYxQi1WA21hLkp-64" value="회원" style="shape=table;startSize=30;container=1;collapsible=1;childLayout=tableLayout;fixedRows=1;rowLines=0;fontStyle=1;align=center;resizeLast=1;" parent="1" vertex="1">
          <mxGeometry x="150" y="-1600" width="220" height="180" as="geometry" />
        </mxCell>
        <mxCell id="MH31CtjYxQi1WA21hLkp-65" value="" style="shape=tableRow;horizontal=0;startSize=0;swimlaneHead=0;swimlaneBody=0;fillColor=none;collapsible=0;dropTarget=0;points=[[0,0.5],[1,0.5]];portConstraint=eastwest;top=0;left=0;right=0;bottom=1;" parent="MH31CtjYxQi1WA21hLkp-64" vertex="1">
          <mxGeometry y="30" width="220" height="30" as="geometry" />
        </mxCell>
        <mxCell id="MH31CtjYxQi1WA21hLkp-66" value="PK" style="shape=partialRectangle;connectable=0;fillColor=none;top=0;left=0;bottom=0;right=0;fontStyle=1;overflow=hidden;" parent="MH31CtjYxQi1WA21hLkp-65" vertex="1">
          <mxGeometry width="30" height="30" as="geometry">
            <mxRectangle width="30" height="30" as="alternateBounds" />
          </mxGeometry>
        </mxCell>
        <mxCell id="MH31CtjYxQi1WA21hLkp-67" value="핸드폰 번호 int(11) not null" style="shape=partialRectangle;connectable=0;fillColor=none;top=0;left=0;bottom=0;right=0;align=left;spacingLeft=6;fontStyle=5;overflow=hidden;" parent="MH31CtjYxQi1WA21hLkp-65" vertex="1">
          <mxGeometry x="30" width="190" height="30" as="geometry">
            <mxRectangle width="190" height="30" as="alternateBounds" />
          </mxGeometry>
        </mxCell>
        <mxCell id="MH31CtjYxQi1WA21hLkp-68" value="" style="shape=tableRow;horizontal=0;startSize=0;swimlaneHead=0;swimlaneBody=0;fillColor=none;collapsible=0;dropTarget=0;points=[[0,0.5],[1,0.5]];portConstraint=eastwest;top=0;left=0;right=0;bottom=0;" parent="MH31CtjYxQi1WA21hLkp-64" vertex="1">
          <mxGeometry y="60" width="220" height="30" as="geometry" />
        </mxCell>
        <mxCell id="MH31CtjYxQi1WA21hLkp-69" value="" style="shape=partialRectangle;connectable=0;fillColor=none;top=0;left=0;bottom=0;right=0;editable=1;overflow=hidden;" parent="MH31CtjYxQi1WA21hLkp-68" vertex="1">
          <mxGeometry width="30" height="30" as="geometry">
            <mxRectangle width="30" height="30" as="alternateBounds" />
          </mxGeometry>
        </mxCell>
        <mxCell id="MH31CtjYxQi1WA21hLkp-70" value="이름 varchar(10) not null" style="shape=partialRectangle;connectable=0;fillColor=none;top=0;left=0;bottom=0;right=0;align=left;spacingLeft=6;overflow=hidden;" parent="MH31CtjYxQi1WA21hLkp-68" vertex="1">
          <mxGeometry x="30" width="190" height="30" as="geometry">
            <mxRectangle width="190" height="30" as="alternateBounds" />
          </mxGeometry>
        </mxCell>
        <mxCell id="MH31CtjYxQi1WA21hLkp-71" style="shape=tableRow;horizontal=0;startSize=0;swimlaneHead=0;swimlaneBody=0;fillColor=none;collapsible=0;dropTarget=0;points=[[0,0.5],[1,0.5]];portConstraint=eastwest;top=0;left=0;right=0;bottom=0;" parent="MH31CtjYxQi1WA21hLkp-64" vertex="1">
          <mxGeometry y="90" width="220" height="30" as="geometry" />
        </mxCell>
        <mxCell id="MH31CtjYxQi1WA21hLkp-72" style="shape=partialRectangle;connectable=0;fillColor=none;top=0;left=0;bottom=0;right=0;editable=1;overflow=hidden;" parent="MH31CtjYxQi1WA21hLkp-71" vertex="1">
          <mxGeometry width="30" height="30" as="geometry">
            <mxRectangle width="30" height="30" as="alternateBounds" />
          </mxGeometry>
        </mxCell>
        <mxCell id="MH31CtjYxQi1WA21hLkp-73" value="생년월일 int(8) not null" style="shape=partialRectangle;connectable=0;fillColor=none;top=0;left=0;bottom=0;right=0;align=left;spacingLeft=6;overflow=hidden;" parent="MH31CtjYxQi1WA21hLkp-71" vertex="1">
          <mxGeometry x="30" width="190" height="30" as="geometry">
            <mxRectangle width="190" height="30" as="alternateBounds" />
          </mxGeometry>
        </mxCell>
        <mxCell id="MH31CtjYxQi1WA21hLkp-74" style="shape=tableRow;horizontal=0;startSize=0;swimlaneHead=0;swimlaneBody=0;fillColor=none;collapsible=0;dropTarget=0;points=[[0,0.5],[1,0.5]];portConstraint=eastwest;top=0;left=0;right=0;bottom=0;" parent="MH31CtjYxQi1WA21hLkp-64" vertex="1">
          <mxGeometry y="120" width="220" height="30" as="geometry" />
        </mxCell>
        <mxCell id="MH31CtjYxQi1WA21hLkp-75" style="shape=partialRectangle;connectable=0;fillColor=none;top=0;left=0;bottom=0;right=0;editable=1;overflow=hidden;" parent="MH31CtjYxQi1WA21hLkp-74" vertex="1">
          <mxGeometry width="30" height="30" as="geometry">
            <mxRectangle width="30" height="30" as="alternateBounds" />
          </mxGeometry>
        </mxCell>
        <mxCell id="MH31CtjYxQi1WA21hLkp-76" value="나이 int" style="shape=partialRectangle;connectable=0;fillColor=none;top=0;left=0;bottom=0;right=0;align=left;spacingLeft=6;overflow=hidden;" parent="MH31CtjYxQi1WA21hLkp-74" vertex="1">
          <mxGeometry x="30" width="190" height="30" as="geometry">
            <mxRectangle width="190" height="30" as="alternateBounds" />
          </mxGeometry>
        </mxCell>
        <mxCell id="MH31CtjYxQi1WA21hLkp-77" style="shape=tableRow;horizontal=0;startSize=0;swimlaneHead=0;swimlaneBody=0;fillColor=none;collapsible=0;dropTarget=0;points=[[0,0.5],[1,0.5]];portConstraint=eastwest;top=0;left=0;right=0;bottom=0;" parent="MH31CtjYxQi1WA21hLkp-64" vertex="1">
          <mxGeometry y="150" width="220" height="30" as="geometry" />
        </mxCell>
        <mxCell id="MH31CtjYxQi1WA21hLkp-78" style="shape=partialRectangle;connectable=0;fillColor=none;top=0;left=0;bottom=0;right=0;editable=1;overflow=hidden;" parent="MH31CtjYxQi1WA21hLkp-77" vertex="1">
          <mxGeometry width="30" height="30" as="geometry">
            <mxRectangle width="30" height="30" as="alternateBounds" />
          </mxGeometry>
        </mxCell>
        <mxCell id="MH31CtjYxQi1WA21hLkp-79" value="적립금 int default 0 not null" style="shape=partialRectangle;connectable=0;fillColor=none;top=0;left=0;bottom=0;right=0;align=left;spacingLeft=6;overflow=hidden;" parent="MH31CtjYxQi1WA21hLkp-77" vertex="1">
          <mxGeometry x="30" width="190" height="30" as="geometry">
            <mxRectangle width="190" height="30" as="alternateBounds" />
          </mxGeometry>
        </mxCell>
        <mxCell id="MH31CtjYxQi1WA21hLkp-80" value="" style="endArrow=none;html=1;rounded=0;exitX=0.5;exitY=0;exitDx=0;exitDy=0;entryX=0.5;entryY=1;entryDx=0;entryDy=0;" parent="1" source="MH31CtjYxQi1WA21hLkp-61" target="MH31CtjYxQi1WA21hLkp-54" edge="1">
          <mxGeometry width="50" height="50" relative="1" as="geometry">
            <mxPoint x="135" y="-1690" as="sourcePoint" />
            <mxPoint x="135" y="-1752" as="targetPoint" />
          </mxGeometry>
        </mxCell>
        <mxCell id="MH31CtjYxQi1WA21hLkp-81" value="" style="endArrow=none;html=1;rounded=0;exitX=0.5;exitY=0;exitDx=0;exitDy=0;entryX=0.5;entryY=1;entryDx=0;entryDy=0;" parent="1" source="MH31CtjYxQi1WA21hLkp-64" target="MH31CtjYxQi1WA21hLkp-54" edge="1">
          <mxGeometry width="50" height="50" relative="1" as="geometry">
            <mxPoint x="80" y="-1590" as="sourcePoint" />
            <mxPoint x="135" y="-1660" as="targetPoint" />
          </mxGeometry>
        </mxCell>
        <mxCell id="MH31CtjYxQi1WA21hLkp-82" value="주문 상세" style="shape=table;startSize=30;container=1;collapsible=1;childLayout=tableLayout;fixedRows=1;rowLines=0;fontStyle=1;align=center;resizeLast=1;" parent="1" vertex="1">
          <mxGeometry x="595" y="-1600" width="250" height="180" as="geometry" />
        </mxCell>
        <mxCell id="MH31CtjYxQi1WA21hLkp-83" value="" style="shape=tableRow;horizontal=0;startSize=0;swimlaneHead=0;swimlaneBody=0;fillColor=none;collapsible=0;dropTarget=0;points=[[0,0.5],[1,0.5]];portConstraint=eastwest;top=0;left=0;right=0;bottom=1;" parent="MH31CtjYxQi1WA21hLkp-82" vertex="1">
          <mxGeometry y="30" width="250" height="30" as="geometry" />
        </mxCell>
        <mxCell id="MH31CtjYxQi1WA21hLkp-84" value="PK, FK" style="shape=partialRectangle;connectable=0;fillColor=none;top=0;left=0;bottom=0;right=0;fontStyle=1;overflow=hidden;" parent="MH31CtjYxQi1WA21hLkp-83" vertex="1">
          <mxGeometry width="60" height="30" as="geometry">
            <mxRectangle width="60" height="30" as="alternateBounds" />
          </mxGeometry>
        </mxCell>
        <mxCell id="MH31CtjYxQi1WA21hLkp-85" value="주문 번호 char(11) not null" style="shape=partialRectangle;connectable=0;fillColor=none;top=0;left=0;bottom=0;right=0;align=left;spacingLeft=6;fontStyle=5;overflow=hidden;" parent="MH31CtjYxQi1WA21hLkp-83" vertex="1">
          <mxGeometry x="60" width="190" height="30" as="geometry">
            <mxRectangle width="190" height="30" as="alternateBounds" />
          </mxGeometry>
        </mxCell>
        <mxCell id="MH31CtjYxQi1WA21hLkp-101" style="shape=tableRow;horizontal=0;startSize=0;swimlaneHead=0;swimlaneBody=0;fillColor=none;collapsible=0;dropTarget=0;points=[[0,0.5],[1,0.5]];portConstraint=eastwest;top=0;left=0;right=0;bottom=1;" parent="MH31CtjYxQi1WA21hLkp-82" vertex="1">
          <mxGeometry y="60" width="250" height="30" as="geometry" />
        </mxCell>
        <mxCell id="MH31CtjYxQi1WA21hLkp-102" value="PK, FK" style="shape=partialRectangle;connectable=0;fillColor=none;top=0;left=0;bottom=0;right=0;fontStyle=1;overflow=hidden;" parent="MH31CtjYxQi1WA21hLkp-101" vertex="1">
          <mxGeometry width="60" height="30" as="geometry">
            <mxRectangle width="60" height="30" as="alternateBounds" />
          </mxGeometry>
        </mxCell>
        <mxCell id="MH31CtjYxQi1WA21hLkp-103" value="메뉴 번호 int not null" style="shape=partialRectangle;connectable=0;fillColor=none;top=0;left=0;bottom=0;right=0;align=left;spacingLeft=6;fontStyle=5;overflow=hidden;" parent="MH31CtjYxQi1WA21hLkp-101" vertex="1">
          <mxGeometry x="60" width="190" height="30" as="geometry">
            <mxRectangle width="190" height="30" as="alternateBounds" />
          </mxGeometry>
        </mxCell>
        <mxCell id="MH31CtjYxQi1WA21hLkp-98" style="shape=tableRow;horizontal=0;startSize=0;swimlaneHead=0;swimlaneBody=0;fillColor=none;collapsible=0;dropTarget=0;points=[[0,0.5],[1,0.5]];portConstraint=eastwest;top=0;left=0;right=0;bottom=1;" parent="MH31CtjYxQi1WA21hLkp-82" vertex="1">
          <mxGeometry y="90" width="250" height="30" as="geometry" />
        </mxCell>
        <mxCell id="MH31CtjYxQi1WA21hLkp-99" value="PK, FK" style="shape=partialRectangle;connectable=0;fillColor=none;top=0;left=0;bottom=0;right=0;fontStyle=1;overflow=hidden;" parent="MH31CtjYxQi1WA21hLkp-98" vertex="1">
          <mxGeometry width="60" height="30" as="geometry">
            <mxRectangle width="60" height="30" as="alternateBounds" />
          </mxGeometry>
        </mxCell>
        <mxCell id="MH31CtjYxQi1WA21hLkp-100" value="선택된 옵션 정보 varchar(30)" style="shape=partialRectangle;connectable=0;fillColor=none;top=0;left=0;bottom=0;right=0;align=left;spacingLeft=6;fontStyle=5;overflow=hidden;" parent="MH31CtjYxQi1WA21hLkp-98" vertex="1">
          <mxGeometry x="60" width="190" height="30" as="geometry">
            <mxRectangle width="190" height="30" as="alternateBounds" />
          </mxGeometry>
        </mxCell>
        <mxCell id="MH31CtjYxQi1WA21hLkp-92" style="shape=tableRow;horizontal=0;startSize=0;swimlaneHead=0;swimlaneBody=0;fillColor=none;collapsible=0;dropTarget=0;points=[[0,0.5],[1,0.5]];portConstraint=eastwest;top=0;left=0;right=0;bottom=0;" parent="MH31CtjYxQi1WA21hLkp-82" vertex="1">
          <mxGeometry y="120" width="250" height="30" as="geometry" />
        </mxCell>
        <mxCell id="MH31CtjYxQi1WA21hLkp-93" style="shape=partialRectangle;connectable=0;fillColor=none;top=0;left=0;bottom=0;right=0;editable=1;overflow=hidden;" parent="MH31CtjYxQi1WA21hLkp-92" vertex="1">
          <mxGeometry width="60" height="30" as="geometry">
            <mxRectangle width="60" height="30" as="alternateBounds" />
          </mxGeometry>
        </mxCell>
        <mxCell id="MH31CtjYxQi1WA21hLkp-94" value="수량 int not null" style="shape=partialRectangle;connectable=0;fillColor=none;top=0;left=0;bottom=0;right=0;align=left;spacingLeft=6;overflow=hidden;" parent="MH31CtjYxQi1WA21hLkp-92" vertex="1">
          <mxGeometry x="60" width="190" height="30" as="geometry">
            <mxRectangle width="190" height="30" as="alternateBounds" />
          </mxGeometry>
        </mxCell>
        <mxCell id="MH31CtjYxQi1WA21hLkp-95" style="shape=tableRow;horizontal=0;startSize=0;swimlaneHead=0;swimlaneBody=0;fillColor=none;collapsible=0;dropTarget=0;points=[[0,0.5],[1,0.5]];portConstraint=eastwest;top=0;left=0;right=0;bottom=0;" parent="MH31CtjYxQi1WA21hLkp-82" vertex="1">
          <mxGeometry y="150" width="250" height="30" as="geometry" />
        </mxCell>
        <mxCell id="MH31CtjYxQi1WA21hLkp-96" style="shape=partialRectangle;connectable=0;fillColor=none;top=0;left=0;bottom=0;right=0;editable=1;overflow=hidden;" parent="MH31CtjYxQi1WA21hLkp-95" vertex="1">
          <mxGeometry width="60" height="30" as="geometry">
            <mxRectangle width="60" height="30" as="alternateBounds" />
          </mxGeometry>
        </mxCell>
        <mxCell id="MH31CtjYxQi1WA21hLkp-97" value="가격 int not null" style="shape=partialRectangle;connectable=0;fillColor=none;top=0;left=0;bottom=0;right=0;align=left;spacingLeft=6;overflow=hidden;" parent="MH31CtjYxQi1WA21hLkp-95" vertex="1">
          <mxGeometry x="60" width="190" height="30" as="geometry">
            <mxRectangle width="190" height="30" as="alternateBounds" />
          </mxGeometry>
        </mxCell>
        <mxCell id="MH31CtjYxQi1WA21hLkp-124" value="주문" style="rounded=0;whiteSpace=wrap;html=1;" parent="1" vertex="1">
          <mxGeometry x="290" y="-1380" width="70" height="30" as="geometry" />
        </mxCell>
        <mxCell id="MH31CtjYxQi1WA21hLkp-127" value="주문" style="rounded=0;whiteSpace=wrap;html=1;" parent="1" vertex="1">
          <mxGeometry x="429" y="-1510" width="70" height="30" as="geometry" />
        </mxCell>
        <mxCell id="MH31CtjYxQi1WA21hLkp-128" value="" style="endArrow=none;html=1;rounded=0;exitX=0;exitY=0.5;exitDx=0;exitDy=0;entryX=1;entryY=0.5;entryDx=0;entryDy=0;" parent="1" source="MH31CtjYxQi1WA21hLkp-127" target="MH31CtjYxQi1WA21hLkp-71" edge="1">
          <mxGeometry width="50" height="50" relative="1" as="geometry">
            <mxPoint x="270" y="-1590" as="sourcePoint" />
            <mxPoint x="135" y="-1660" as="targetPoint" />
          </mxGeometry>
        </mxCell>
        <mxCell id="MH31CtjYxQi1WA21hLkp-143" value="주문 내역" style="shape=table;startSize=30;container=1;collapsible=1;childLayout=tableLayout;fixedRows=1;rowLines=0;fontStyle=1;align=center;resizeLast=1;" parent="1" vertex="1">
          <mxGeometry x="634" y="-1910" width="180" height="150" as="geometry" />
        </mxCell>
        <mxCell id="MH31CtjYxQi1WA21hLkp-144" value="" style="shape=tableRow;horizontal=0;startSize=0;swimlaneHead=0;swimlaneBody=0;fillColor=none;collapsible=0;dropTarget=0;points=[[0,0.5],[1,0.5]];portConstraint=eastwest;top=0;left=0;right=0;bottom=1;" parent="MH31CtjYxQi1WA21hLkp-143" vertex="1">
          <mxGeometry y="30" width="180" height="30" as="geometry" />
        </mxCell>
        <mxCell id="MH31CtjYxQi1WA21hLkp-145" value="PK" style="shape=partialRectangle;connectable=0;fillColor=none;top=0;left=0;bottom=0;right=0;fontStyle=1;overflow=hidden;" parent="MH31CtjYxQi1WA21hLkp-144" vertex="1">
          <mxGeometry width="30" height="30" as="geometry">
            <mxRectangle width="30" height="30" as="alternateBounds" />
          </mxGeometry>
        </mxCell>
        <mxCell id="MH31CtjYxQi1WA21hLkp-146" value="주문 번호 int" style="shape=partialRectangle;connectable=0;fillColor=none;top=0;left=0;bottom=0;right=0;align=left;spacingLeft=6;fontStyle=5;overflow=hidden;" parent="MH31CtjYxQi1WA21hLkp-144" vertex="1">
          <mxGeometry x="30" width="150" height="30" as="geometry">
            <mxRectangle width="150" height="30" as="alternateBounds" />
          </mxGeometry>
        </mxCell>
        <mxCell id="MH31CtjYxQi1WA21hLkp-159" style="shape=tableRow;horizontal=0;startSize=0;swimlaneHead=0;swimlaneBody=0;fillColor=none;collapsible=0;dropTarget=0;points=[[0,0.5],[1,0.5]];portConstraint=eastwest;top=0;left=0;right=0;bottom=1;" parent="MH31CtjYxQi1WA21hLkp-143" vertex="1">
          <mxGeometry y="60" width="180" height="30" as="geometry" />
        </mxCell>
        <mxCell id="MH31CtjYxQi1WA21hLkp-160" value="FK " style="shape=partialRectangle;connectable=0;fillColor=none;top=0;left=0;bottom=0;right=0;fontStyle=0;overflow=hidden;" parent="MH31CtjYxQi1WA21hLkp-159" vertex="1">
          <mxGeometry width="30" height="30" as="geometry">
            <mxRectangle width="30" height="30" as="alternateBounds" />
          </mxGeometry>
        </mxCell>
        <mxCell id="MH31CtjYxQi1WA21hLkp-161" value="구매자 int(11) not null" style="shape=partialRectangle;connectable=0;fillColor=none;top=0;left=0;bottom=0;right=0;align=left;spacingLeft=6;fontStyle=0;overflow=hidden;" parent="MH31CtjYxQi1WA21hLkp-159" vertex="1">
          <mxGeometry x="30" width="150" height="30" as="geometry">
            <mxRectangle width="150" height="30" as="alternateBounds" />
          </mxGeometry>
        </mxCell>
        <mxCell id="MH31CtjYxQi1WA21hLkp-150" style="shape=tableRow;horizontal=0;startSize=0;swimlaneHead=0;swimlaneBody=0;fillColor=none;collapsible=0;dropTarget=0;points=[[0,0.5],[1,0.5]];portConstraint=eastwest;top=0;left=0;right=0;bottom=0;" parent="MH31CtjYxQi1WA21hLkp-143" vertex="1">
          <mxGeometry y="90" width="180" height="30" as="geometry" />
        </mxCell>
        <mxCell id="MH31CtjYxQi1WA21hLkp-151" style="shape=partialRectangle;connectable=0;fillColor=none;top=0;left=0;bottom=0;right=0;editable=1;overflow=hidden;" parent="MH31CtjYxQi1WA21hLkp-150" vertex="1">
          <mxGeometry width="30" height="30" as="geometry">
            <mxRectangle width="30" height="30" as="alternateBounds" />
          </mxGeometry>
        </mxCell>
        <mxCell id="MH31CtjYxQi1WA21hLkp-152" value="총 가격 int" style="shape=partialRectangle;connectable=0;fillColor=none;top=0;left=0;bottom=0;right=0;align=left;spacingLeft=6;overflow=hidden;" parent="MH31CtjYxQi1WA21hLkp-150" vertex="1">
          <mxGeometry x="30" width="150" height="30" as="geometry">
            <mxRectangle width="150" height="30" as="alternateBounds" />
          </mxGeometry>
        </mxCell>
        <mxCell id="MH31CtjYxQi1WA21hLkp-153" style="shape=tableRow;horizontal=0;startSize=0;swimlaneHead=0;swimlaneBody=0;fillColor=none;collapsible=0;dropTarget=0;points=[[0,0.5],[1,0.5]];portConstraint=eastwest;top=0;left=0;right=0;bottom=0;" parent="MH31CtjYxQi1WA21hLkp-143" vertex="1">
          <mxGeometry y="120" width="180" height="30" as="geometry" />
        </mxCell>
        <mxCell id="MH31CtjYxQi1WA21hLkp-154" style="shape=partialRectangle;connectable=0;fillColor=none;top=0;left=0;bottom=0;right=0;editable=1;overflow=hidden;" parent="MH31CtjYxQi1WA21hLkp-153" vertex="1">
          <mxGeometry width="30" height="30" as="geometry">
            <mxRectangle width="30" height="30" as="alternateBounds" />
          </mxGeometry>
        </mxCell>
        <mxCell id="MH31CtjYxQi1WA21hLkp-155" value="주문 날짜 timestamp" style="shape=partialRectangle;connectable=0;fillColor=none;top=0;left=0;bottom=0;right=0;align=left;spacingLeft=6;overflow=hidden;" parent="MH31CtjYxQi1WA21hLkp-153" vertex="1">
          <mxGeometry x="30" width="150" height="30" as="geometry">
            <mxRectangle width="150" height="30" as="alternateBounds" />
          </mxGeometry>
        </mxCell>
        <mxCell id="MH31CtjYxQi1WA21hLkp-156" value="소속" style="rounded=0;whiteSpace=wrap;html=1;" parent="1" vertex="1">
          <mxGeometry x="685" y="-1700" width="70" height="30" as="geometry" />
        </mxCell>
        <mxCell id="MH31CtjYxQi1WA21hLkp-165" value="n" style="text;html=1;align=center;verticalAlign=middle;resizable=0;points=[];autosize=1;strokeColor=#d6b656;fillColor=#fff2cc;" parent="1" vertex="1">
          <mxGeometry x="115" y="-2015" width="20" height="20" as="geometry" />
        </mxCell>
        <mxCell id="MH31CtjYxQi1WA21hLkp-166" value="1" style="text;html=1;align=center;verticalAlign=middle;resizable=0;points=[];autosize=1;strokeColor=#d6b656;fillColor=#fff2cc;" parent="1" vertex="1">
          <mxGeometry x="115.5" y="-1939" width="20" height="20" as="geometry" />
        </mxCell>
        <mxCell id="MH31CtjYxQi1WA21hLkp-167" value="n" style="text;html=1;align=center;verticalAlign=middle;resizable=0;points=[];autosize=1;strokeColor=#6c8ebf;fillColor=#dae8fc;" parent="1" vertex="1">
          <mxGeometry x="250" y="-2090" width="20" height="20" as="geometry" />
        </mxCell>
        <mxCell id="MH31CtjYxQi1WA21hLkp-169" value="m" style="text;html=1;align=center;verticalAlign=middle;resizable=0;points=[];autosize=1;strokeColor=#6c8ebf;fillColor=#dae8fc;" parent="1" vertex="1">
          <mxGeometry x="365" y="-2090" width="30" height="20" as="geometry" />
        </mxCell>
        <mxCell id="MH31CtjYxQi1WA21hLkp-170" value="1" style="text;html=1;align=center;verticalAlign=middle;resizable=0;points=[];autosize=1;strokeColor=#0e8088;fillColor=#b0e3e6;" parent="1" vertex="1">
          <mxGeometry x="113.5" y="-1740" width="20" height="20" as="geometry" />
        </mxCell>
        <mxCell id="MH31CtjYxQi1WA21hLkp-171" value="1" style="text;html=1;align=center;verticalAlign=middle;resizable=0;points=[];autosize=1;strokeColor=#0e8088;fillColor=#b0e3e6;" parent="1" vertex="1">
          <mxGeometry x="80" y="-1639" width="20" height="20" as="geometry" />
        </mxCell>
        <mxCell id="MH31CtjYxQi1WA21hLkp-172" value="1" style="text;html=1;align=center;verticalAlign=middle;resizable=0;points=[];autosize=1;strokeColor=#0e8088;fillColor=#b0e3e6;" parent="1" vertex="1">
          <mxGeometry x="190" y="-1639" width="20" height="20" as="geometry" />
        </mxCell>
        <mxCell id="MH31CtjYxQi1WA21hLkp-174" value="1" style="text;html=1;align=center;verticalAlign=middle;resizable=0;points=[];autosize=1;strokeColor=#d6b656;fillColor=#fff2cc;" parent="1" vertex="1">
          <mxGeometry x="160" y="-1390" width="20" height="20" as="geometry" />
        </mxCell>
        <mxCell id="MH31CtjYxQi1WA21hLkp-176" value="1" style="text;html=1;align=center;verticalAlign=middle;resizable=0;points=[];autosize=1;strokeColor=#d6b656;fillColor=#fff2cc;" parent="1" vertex="1">
          <mxGeometry x="395" y="-1520" width="20" height="20" as="geometry" />
        </mxCell>
        <mxCell id="MH31CtjYxQi1WA21hLkp-177" value="n" style="text;html=1;align=center;verticalAlign=middle;resizable=0;points=[];autosize=1;strokeColor=#d6b656;fillColor=#fff2cc;" parent="1" vertex="1">
          <mxGeometry x="530" y="-1520" width="20" height="20" as="geometry" />
        </mxCell>
        <mxCell id="MH31CtjYxQi1WA21hLkp-178" value="n" style="text;html=1;align=center;verticalAlign=middle;resizable=0;points=[];autosize=1;strokeColor=#d6b656;fillColor=#fff2cc;" parent="1" vertex="1">
          <mxGeometry x="479" y="-1390" width="20" height="20" as="geometry" />
        </mxCell>
        <mxCell id="MH31CtjYxQi1WA21hLkp-179" value="1" style="text;html=1;align=center;verticalAlign=middle;resizable=0;points=[];autosize=1;strokeColor=#d6b656;fillColor=#fff2cc;" parent="1" vertex="1">
          <mxGeometry x="688" y="-1740" width="20" height="20" as="geometry" />
        </mxCell>
        <mxCell id="MH31CtjYxQi1WA21hLkp-180" value="n" style="text;html=1;align=center;verticalAlign=middle;resizable=0;points=[];autosize=1;strokeColor=#d6b656;fillColor=#fff2cc;" parent="1" vertex="1">
          <mxGeometry x="688" y="-1650" width="20" height="20" as="geometry" />
        </mxCell>
        <mxCell id="MH31CtjYxQi1WA21hLkp-181" value="" style="endArrow=none;html=1;rounded=0;exitX=0.5;exitY=1;exitDx=0;exitDy=0;entryX=0;entryY=0.5;entryDx=0;entryDy=0;" parent="1" source="MH31CtjYxQi1WA21hLkp-61" target="MH31CtjYxQi1WA21hLkp-124" edge="1">
          <mxGeometry width="50" height="50" relative="1" as="geometry">
            <mxPoint x="80" y="-1590" as="sourcePoint" />
            <mxPoint x="135" y="-1660" as="targetPoint" />
            <Array as="points">
              <mxPoint x="70" y="-1365" />
            </Array>
          </mxGeometry>
        </mxCell>
        <mxCell id="MH31CtjYxQi1WA21hLkp-182" value="" style="endArrow=none;html=1;rounded=0;exitX=1;exitY=0.5;exitDx=0;exitDy=0;" parent="1" source="MH31CtjYxQi1WA21hLkp-124" target="MH31CtjYxQi1WA21hLkp-95" edge="1">
          <mxGeometry width="50" height="50" relative="1" as="geometry">
            <mxPoint x="80" y="-1560" as="sourcePoint" />
            <mxPoint x="698" y="-1410" as="targetPoint" />
            <Array as="points">
              <mxPoint x="720" y="-1365" />
            </Array>
          </mxGeometry>
        </mxCell>
        <mxCell id="MH31CtjYxQi1WA21hLkp-183" value="" style="endArrow=none;html=1;rounded=0;exitX=1;exitY=0.5;exitDx=0;exitDy=0;entryX=0;entryY=0.5;entryDx=0;entryDy=0;" parent="1" source="MH31CtjYxQi1WA21hLkp-127" target="MH31CtjYxQi1WA21hLkp-98" edge="1">
          <mxGeometry width="50" height="50" relative="1" as="geometry">
            <mxPoint x="439" y="-1485" as="sourcePoint" />
            <mxPoint x="595" y="-1495" as="targetPoint" />
          </mxGeometry>
        </mxCell>
        <mxCell id="fNFz6IM5qzsCqOCAjRxp-13" value="" style="endArrow=none;html=1;rounded=0;entryX=0.478;entryY=1;entryDx=0;entryDy=0;entryPerimeter=0;exitX=0.5;exitY=0;exitDx=0;exitDy=0;" edge="1" parent="1" source="MH31CtjYxQi1WA21hLkp-156" target="MH31CtjYxQi1WA21hLkp-153">
          <mxGeometry width="50" height="50" relative="1" as="geometry">
            <mxPoint x="395" y="-1450" as="sourcePoint" />
            <mxPoint x="445" y="-1500" as="targetPoint" />
          </mxGeometry>
        </mxCell>
        <mxCell id="fNFz6IM5qzsCqOCAjRxp-14" value="" style="endArrow=none;html=1;rounded=0;entryX=0.5;entryY=1;entryDx=0;entryDy=0;exitX=0.5;exitY=0;exitDx=0;exitDy=0;" edge="1" parent="1" source="MH31CtjYxQi1WA21hLkp-82" target="MH31CtjYxQi1WA21hLkp-156">
          <mxGeometry width="50" height="50" relative="1" as="geometry">
            <mxPoint x="705" y="-1690" as="sourcePoint" />
            <mxPoint x="691.04" y="-1750" as="targetPoint" />
          </mxGeometry>
        </mxCell>
      </root>
    </mxGraphModel>
  </diagram>
</mxfile>
